<svg xmlns="http://www.w3.org/2000/svg" width="32" height="32" viewBox="0 0 32 32">
  <defs>
    <linearGradient id="mapGradient" x1="0%" y1="0%" x2="100%" y2="100%">
      <stop offset="0%" stop-color="#4CAF50"/>
      <stop offset="100%" stop-color="#2E7D32"/>
    </linearGradient>
    <linearGradient id="pinGradient" x1="0%" y1="0%" x2="100%" y2="100%">
      <stop offset="0%" stop-color="#FF5722"/>
      <stop offset="100%" stop-color="#D32F2F"/>
    </linearGradient>
  </defs>
  
  <!-- Map background -->
  <rect x="2" y="6" width="28" height="20" rx="2" fill="url(#mapGradient)" stroke="#1B5E20" stroke-width="1"/>
  
  <!-- Grid lines -->
  <line x1="8" y1="6" x2="8" y2="26" stroke="#81C784" stroke-width="0.5" opacity="0.7"/>
  <line x1="16" y1="6" x2="16" y2="26" stroke="#81C784" stroke-width="0.5" opacity="0.7"/>
  <line x1="24" y1="6" x2="24" y2="26" stroke="#81C784" stroke-width="0.5" opacity="0.7"/>
  <line x1="2" y1="12" x2="30" y2="12" stroke="#81C784" stroke-width="0.5" opacity="0.7"/>
  <line x1="2" y1="20" x2="30" y2="20" stroke="#81C784" stroke-width="0.5" opacity="0.7"/>
  
  <!-- Location pin -->
  <path d="M20 2 C17.8 2 16 3.8 16 6 C16 9 20 14 20 14 S24 9 24 6 C24 3.8 22.2 2 20 2 Z" fill="url(#pinGradient)" stroke="#B71C1C" stroke-width="0.5"/>
  <circle cx="20" cy="6" r="2" fill="#FFFFFF"/>
  
  <!-- Small parcels/buildings -->
  <rect x="5" y="9" width="2" height="2" fill="#A5D6A7" opacity="0.8"/>
  <rect x="10" y="15" width="3" height="2" fill="#A5D6A7" opacity="0.8"/>
  <rect x="25" y="10" width="2" height="3" fill="#A5D6A7" opacity="0.8"/>
</svg>